<svg xmlns="http://www.w3.org/2000/svg" viewBox="0 0 1200 520" width="1200" height="520" font-family="ui-monospace, 'Cascadia Code', Consolas, Menlo, monospace" role="img" aria-label="Build time: sources are bundled and prerendered to static output, synced to S3. Request time: CloudFront delivers to the browser, which hydrates.">
  <defs>
    <marker id="arrow" viewBox="0 0 10 10" refX="9" refY="5" markerWidth="7" markerHeight="7" orient="auto-start-reverse">
      <path d="M0 0 L10 5 L0 10 z" fill="#475569"/>
    </marker>
    <marker id="arrowAccent" viewBox="0 0 10 10" refX="9" refY="5" markerWidth="7" markerHeight="7" orient="auto-start-reverse">
      <path d="M0 0 L10 5 L0 10 z" fill="#0ea5e9"/>
    </marker>
  </defs>

  <rect width="1200" height="520" fill="#131317"/>

  <!-- Lane: build time -->
  <text x="60" y="52" fill="#64748b" font-size="15" letter-spacing="5">BUILD TIME</text>

  <rect x="60" y="86" width="300" height="112" rx="10" fill="#1c1c22" stroke="#2e2e38"/>
  <text x="210" y="130" fill="#e2e8f0" font-size="21" font-weight="600" text-anchor="middle">SOURCES</text>
  <text x="210" y="157" fill="#64748b" font-size="14" text-anchor="middle">content.ts · blog/*.md</text>
  <text x="210" y="178" fill="#64748b" font-size="14" text-anchor="middle">components</text>

  <line x1="364" y1="142" x2="452" y2="142" stroke="#475569" stroke-width="1.5" marker-end="url(#arrow)"/>

  <rect x="460" y="86" width="280" height="112" rx="10" fill="#0ea5e914" stroke="#0ea5e9"/>
  <text x="600" y="130" fill="#38bdf8" font-size="21" font-weight="600" text-anchor="middle">ng build</text>
  <text x="600" y="157" fill="#38bdf8" font-size="14" opacity="0.75" text-anchor="middle">bundle + prerender</text>
  <text x="600" y="178" fill="#38bdf8" font-size="14" opacity="0.75" text-anchor="middle">outputMode: static</text>

  <line x1="744" y1="142" x2="832" y2="142" stroke="#475569" stroke-width="1.5" marker-end="url(#arrow)"/>

  <rect x="840" y="86" width="300" height="112" rx="10" fill="#1c1c22" stroke="#2e2e38"/>
  <text x="990" y="130" fill="#e2e8f0" font-size="21" font-weight="600" text-anchor="middle">STATIC OUTPUT</text>
  <text x="990" y="157" fill="#64748b" font-size="14" text-anchor="middle">6 × index.html</text>
  <text x="990" y="178" fill="#64748b" font-size="14" text-anchor="middle">hashed JS · CSS</text>

  <!-- Deploy connector -->
  <line x1="990" y1="202" x2="990" y2="332" stroke="#475569" stroke-width="1.5" stroke-dasharray="6 5" marker-end="url(#arrow)"/>
  <text x="1010" y="273" fill="#64748b" font-size="14">aws s3 sync</text>

  <!-- Lane divider -->
  <line x1="60" y1="262" x2="900" y2="262" stroke="#2e2e38" stroke-dasharray="4 6"/>
  <text x="60" y="302" fill="#64748b" font-size="15" letter-spacing="5">REQUEST TIME</text>

  <!-- Lane: request time (right to left) -->
  <rect x="840" y="336" width="300" height="112" rx="10" fill="#1c1c22" stroke="#2e2e38"/>
  <text x="990" y="380" fill="#e2e8f0" font-size="21" font-weight="600" text-anchor="middle">S3 BUCKET</text>
  <text x="990" y="407" fill="#64748b" font-size="14" text-anchor="middle">private · OAC</text>
  <text x="990" y="428" fill="#64748b" font-size="14" text-anchor="middle">objects = pages</text>

  <line x1="836" y1="392" x2="748" y2="392" stroke="#475569" stroke-width="1.5" marker-end="url(#arrow)"/>

  <rect x="460" y="336" width="280" height="112" rx="10" fill="#1c1c22" stroke="#2e2e38"/>
  <text x="600" y="380" fill="#e2e8f0" font-size="21" font-weight="600" text-anchor="middle">CLOUDFRONT</text>
  <text x="600" y="407" fill="#64748b" font-size="14" text-anchor="middle">CDN · edge cache</text>
  <text x="600" y="428" fill="#64748b" font-size="14" text-anchor="middle">rewrite function</text>

  <line x1="456" y1="392" x2="368" y2="392" stroke="#0ea5e9" stroke-width="1.5" marker-end="url(#arrowAccent)"/>
  <text x="412" y="378" fill="#38bdf8" font-size="13" text-anchor="middle">HTML</text>

  <rect x="60" y="336" width="300" height="112" rx="10" fill="#0ea5e914" stroke="#0ea5e9"/>
  <text x="210" y="380" fill="#38bdf8" font-size="21" font-weight="600" text-anchor="middle">BROWSER</text>
  <text x="210" y="407" fill="#38bdf8" font-size="14" opacity="0.75" text-anchor="middle">instant first paint</text>
  <text x="210" y="428" fill="#38bdf8" font-size="14" opacity="0.75" text-anchor="middle">then: hydration</text>
</svg>
